# xmcd
#
# Track frame offsets:
#	150
#	20562
#	68027
#	121152
#	159030
#	185245
#	210822
#	233322
#	296560
#	303675
#	320822
#
# Disc length: 4721 seconds
#
# Revision: 4
# Processed by: cddbd v1.4PL0 Copyright (c) Steve Scherf et al.
# Submitted via: audiograbber 1.82.01
#
DISCID=90126f0b
DTITLE=Dorothy Donegan - Live at the 1990 Floating Jazz Festival
DYEAR=1990
DGENRE=Jazz - Boogie-Woogie
TTITLE0=My Funny Valentine
TTITLE1=Misty - Caravan Medley
TTITLE2=Someday My Prince Will Come - Tiger Rag Medley
TTITLE3=Lena, Eartha, Pearl and Billie
TTITLE4=Who Can I Turn To?
TTITLE5=The Lady is a Tramp
TTITLE6=After Hours
TTITLE7=Round Midnight - Gershwin Medley
TTITLE8=Remarks to Audience
TTITLE9=Blackbird Boogie
TTITLE10=Jazzspeak
EXTD=
EXTT0=
EXTT1=
EXTT2=
EXTT3=
EXTT4=
EXTT5=
EXTT6=
EXTT7=
EXTT8=
EXTT9=
EXTT10=
PLAYORDER=
